<?xml version="1.0" encoding="UTF-8"?>
<svg xmlns="http://www.w3.org/2000/svg" xmlns:xlink="http://www.w3.org/1999/xlink" viewBox="0 0 716.97 600">
  <defs>
    <style>
      .k {
        clip-path: url(#j);
      }

      .l {
        fill: none;
      }

      .m {
        clip-path: url(#b);
      }

      .n {
        clip-path: url(#g);
      }

      .o {
        clip-path: url(#c);
      }

      .p {
        fill: #083009;
      }
    </style>
    <clipPath id="b">
      <path class="l" d="M415.98,1.5L52.41,621.5h321.03L706.98,1.5s-293.37,0-291,0Z"/>
    </clipPath>
    <clipPath id="c">
      <polygon class="l" points="415.57 1 51.98 621.5 372.98 621.5 707.42 1 415.57 1"/>
    </clipPath>
    <clipPath id="g">
      <path class="l" d="M664.98,478.9H49.98v-3.7h615v3.7ZM664.98,481.3H49.98v3.66h615v-3.66ZM664.98,487.41H49.98v3.62h615v-3.62ZM664.98,493.52H49.98v3.57h615v-3.57ZM664.98,499.63H49.98v3.53h615v-3.53ZM664.98,505.73H49.98v3.49h615v-3.49ZM664.98,511.84H49.98v3.44h615v-3.44ZM664.98,517.95H49.98v3.4h615v-3.4ZM664.98,524.06H49.98v3.36h615v-3.36ZM664.98,530.16H49.98v3.32h615v-3.32ZM664.98,536.27H49.98v3.27h615v-3.27ZM664.98,542.38H49.98v3.23h615v-3.23ZM664.98,548.48H49.98v3.19h615v-3.19ZM664.98,554.59H49.98v3.15h615v-3.15Z"/>
    </clipPath>
    <clipPath id="j">
      <path class="l" d="M665.64,454.35H50.64v3.15h615v-3.15ZM665.64,450.53H50.64v-3.16h615v3.16ZM665.64,443.57H50.64v-3.17h615v3.17ZM665.64,436.6H50.64v-3.17h615v3.17ZM665.64,429.64H50.64v-3.18h615v3.18ZM665.64,422.67H50.64v-3.19h615v3.19ZM665.64,415.71H50.64v-3.2h615v3.2ZM665.64,408.74H50.64v-3.21h615v3.21ZM665.64,401.78H50.64v-3.22h615v3.22ZM665.64,394.81H50.64v-3.23h615v3.23ZM665.64,387.85H50.64v-3.24h615v3.24ZM665.64,380.88H50.64v-3.25h615v3.25ZM665.64,373.92H50.64v-3.26h615v3.26ZM665.64,366.96H50.64v-3.27h615v3.27ZM665.64,359.99H50.64v-3.27h615v3.27ZM665.64,353.03H50.64v-3.28h615v3.28ZM665.64,346.06H50.64v-3.29h615v3.29ZM665.64,339.1H50.64v-3.3h615v3.3ZM665.64,332.13H50.64v-3.31h615v3.31ZM665.64,325.17H50.64v-3.32h615v3.32ZM665.64,318.2H50.64v-3.33h615v3.33ZM665.64,311.24H50.64v-3.34h615v3.34ZM665.64,304.27H50.64v-3.35h615v3.35ZM665.64,297.31H50.64v-3.36h615v3.36ZM665.64,290.34H50.64v-3.36h615v3.36ZM665.64,283.38H50.64v-3.37h615v3.37ZM665.64,276.42H50.64v-3.38h615v3.38ZM665.64,269.45H50.64v-3.39h615v3.39ZM665.64,262.49H50.64v-3.4h615v3.4ZM665.64,255.52H50.64v-3.41h615v3.41ZM665.64,248.56H50.64v-3.42h615v3.42ZM665.64,241.59H50.64v-3.43h615v3.43ZM665.64,234.63H50.64v-3.44h615v3.44ZM665.64,227.66H50.64v-3.45h615v3.45ZM665.64,220.7H50.64v-3.46h615v3.46ZM665.64,213.73H50.64v-3.46h615v3.46ZM665.64,206.77H50.64v-3.47h615v3.47ZM665.64,199.8H50.64v-3.48h615v3.48ZM665.64,192.84H50.64v-3.49h615v3.49ZM665.64,185.88H50.64v-3.5h615v3.5ZM665.64,178.91H50.64v-3.51h615v3.51ZM665.64,171.95H50.64v-3.52h615v3.52ZM665.64,164.98H50.64v-3.53h615v3.53ZM665.64,158.02H50.64v-3.54h615v3.54ZM665.64,151.05H50.64v-3.55h615v3.55ZM665.64,144.09H50.64v-3.56h615v3.56ZM665.64,137.12H50.64v-3.56h615v3.56ZM665.64,130.16H50.64v-3.57h615v3.57ZM665.64,123.19H50.64v-3.58h615v3.58ZM665.64,116.23H50.64v-3.59h615v3.59ZM665.64,109.26H50.64v-3.6h615v3.6ZM665.64,102.3H50.64v-3.61h615v3.61ZM665.64,95.34H50.64v-3.62h615v3.62ZM665.64,88.37H50.64v-3.63h615v3.63ZM665.64,81.41H50.64v-3.64h615v3.64ZM665.64,74.44H50.64v-3.65h615v3.65ZM665.64,67.48H50.64v-3.65h615v3.65ZM665.64,60.51H50.64v-3.66h615v3.66ZM665.64,53.55H50.64v-3.67h615v3.67ZM665.64,46.58H50.64v-3.68h615v3.68ZM665.64,39.62H50.64v-3.69h615v3.69ZM665.64,32.65H50.64v-3.7h615v3.7Z"/>
    </clipPath>
  </defs>
  <g id="a" data-name="UNDER TEXT">
    <g class="m">
      <g>
        <path class="p" d="M51.5,493.98v-12.27h49.28v12.27h-17.56v58.25h-14.35v-58.25h-17.37Z"/>
        <path class="p" d="M111.07,481.7h14.35v70.52h-14.35v-70.52Z"/>
        <path class="p" d="M141.84,552.23v-70.52h14.82l22.28,45.41v-45.41h13.31v70.52h-13.03l-24.07-48.34v48.34h-13.31Z"/>
        <path class="p" d="M222,527.49l-21.71-45.79h14.82l13.97,30.87,14.73-30.87h14.07l-21.52,45.69v24.83h-14.35v-24.73Z"/>
        <path class="p" d="M262.22,529.95h12.18c-.19,1.51-.28,2.74-.28,3.87,0,5.76,4.06,7.93,8.87,7.93,7.08,0,9.06-4.06,9.06-8.5,0-5.48-5.29-8.59-11.23-11.14-3.96-1.7-18.6-6.04-18.6-21.62,0-12.75,6.99-20.49,23.04-20.49,13.12,0,18.69,5.76,18.69,18.5,0,2.55-.38,5.38-.38,5.38h-12.46s.38-2.45.38-4.53c0-2.83-.75-7.27-7.55-7.27-5.57,0-7.46,2.83-7.46,6.51,0,5.29,3.12,7.84,11.05,11.05,8.69,3.49,18.79,7.84,18.79,23.04,0,12.65-6.61,21.15-23.22,21.15-13.88,0-21.15-6.14-21.15-19.07,0-2.08.28-4.82.28-4.82Z"/>
        <path class="p" d="M336.8,529.95h12.18c-.19,1.51-.28,2.74-.28,3.87,0,5.76,4.06,7.93,8.87,7.93,7.08,0,9.06-4.06,9.06-8.5,0-5.48-5.29-8.59-11.23-11.14-3.96-1.7-18.6-6.04-18.6-21.62,0-12.75,6.99-20.49,23.04-20.49,13.12,0,18.69,5.76,18.69,18.5,0,2.55-.38,5.38-.38,5.38h-12.46s.38-2.45.38-4.53c0-2.83-.75-7.27-7.55-7.27-5.57,0-7.46,2.83-7.46,6.51,0,5.29,3.12,7.84,11.05,11.05,8.69,3.49,18.79,7.84,18.79,23.04,0,12.65-6.61,21.15-23.22,21.15-13.88,0-21.15-6.14-21.15-19.07,0-2.08.28-4.82.28-4.82Z"/>
        <path class="p" d="M392.4,552.23v-70.52h19.73c19.73,0,27.94,8.87,27.94,22.47s-7.36,22.94-28.89,22.94h-4.44v25.11h-14.35ZM413.83,514.84c6.99,0,10.76-4.34,10.76-10.48s-3.87-10.38-11.89-10.38h-5.95v20.86h7.08Z"/>
        <path class="p" d="M448.39,516.45c0-20.86,5.48-36.44,25.87-36.44,22.75,0,26.34,17.94,26.34,37.01s-4.06,36.91-26.34,36.91-25.87-19.83-25.87-37.48ZM463.87,514.65c0,18.31,3.4,26.53,10.57,26.53,6.33,0,10.67-5.95,10.67-21.81,0-18.79-2.74-26.62-10.57-26.62-6.33,0-10.67,6.04-10.67,21.9Z"/>
        <path class="p" d="M513.34,552.23v-70.52h22.47c15.48,0,23.79,6.42,23.79,20.11,0,11.8-8.21,16.99-12.27,19.17l14.54,31.25h-15.58l-12.65-28.7h-5.95v28.7h-14.35ZM529.86,512.67c5.76,0,14.25-.94,14.25-10.67,0-6.89-3.68-9.91-12.27-9.91h-4.15v20.58h2.17Z"/>
        <path class="p" d="M566.68,493.98v-12.27h49.28v12.27h-17.56v58.25h-14.35v-58.25h-17.37Z"/>
        <path class="p" d="M621.53,529.95h12.18c-.19,1.51-.28,2.74-.28,3.87,0,5.76,4.06,7.93,8.87,7.93,7.08,0,9.06-4.06,9.06-8.5,0-5.48-5.29-8.59-11.23-11.14-3.96-1.7-18.6-6.04-18.6-21.62,0-12.75,6.99-20.49,23.04-20.49,13.12,0,18.69,5.76,18.69,18.5,0,2.55-.38,5.38-.38,5.38h-12.46s.38-2.45.38-4.53c0-2.83-.75-7.27-7.55-7.27-5.57,0-7.46,2.83-7.46,6.51,0,5.29,3.12,7.84,11.05,11.05,8.69,3.49,18.79,7.84,18.79,23.04,0,12.65-6.61,21.15-23.22,21.15-13.88,0-21.15-6.14-21.15-19.07,0-2.08.28-4.82.28-4.82Z"/>
      </g>
    </g>
    <g class="o">
      <path class="p" d="M334.81,46.41c-23.21,5.32-40.94,15.47-57.54,33.2-12.25,12.89-20.31,26.76-25.63,43.52-5.32,17.25-5.32,45.62,0,62.86,5.8,18.38,13.86,31.43,28.37,46.1,22.73,22.73,44.97,32.08,76.72,32.08s54-9.35,76.72-32.08c14.51-14.67,22.57-27.72,28.37-46.1,5.32-17.25,5.32-45.62,0-62.86-5.8-18.38-13.86-31.43-28.37-46.1-21.44-21.44-43.04-30.95-72.69-32.24-10.32-.32-19.66.16-25.95,1.61ZM376.88,56.24c6.29,1.29,17.41,5.32,24.82,9.03,38.52,19.02,61.25,64.47,53.35,106.22-.97,4.84-1.93,8.87-2.26,9.19-.32.48-7.74-3.06-16.44-7.58-14.99-7.9-16.44-8.38-25.63-7.74-7.41.48-13.54,2.42-26.6,8.54-23.05,10.96-29.5,10.96-53.51.32-23.05-10.15-28.69-10.15-49.65-.32-8.38,4.03-16.44,7.25-17.89,7.25-3.38,0-4.51-4.19-5.64-20.95-4.35-64.96,55.77-117.34,119.44-103.96ZM435.07,179.23c8.38,4.19,15.15,8.54,15.15,9.67,0,1.29-2.74,7.41-5.96,13.86-8.87,16.76-25.14,32.56-42.55,41.1-30.46,14.99-59.48,14.99-89.94,0-17.41-8.54-33.69-24.34-42.55-41.1-7.09-13.86-7.41-16.76-1.77-16.76,2.26,0,9.67-2.9,16.44-6.45,18.86-9.83,20.79-9.83,43.84,0,10.96,4.84,23.05,8.87,27.4,9.35,7.74.64,12.09-.81,45.13-15.15,11.12-4.84,15.31-4.19,34.82,5.48ZM332.88,101.54c-18.54,5.48-33.37,12.41-36.59,17.25-2.42,3.87-2.42,4.84-.16,12.73,3.71,12.57,23.86,35.14,31.27,35.14,4.35,0,8.38-4.19,8.38-8.54,0-4.67-3.38-9.51-14.18-20.79-4.84-5-8.38-9.67-7.74-10.64.48-.81,9.67-7.25,20.31-14.18s19.34-13.22,19.34-13.86c0-2.26-6.77-1.29-20.63,2.9ZM350.93,137.48c-7.58,4.67-10.32,9.51-10.32,18.21,0,6.61.81,8.7,5.48,13.86,5.16,5.48,6.29,5.96,14.51,5.96s9.51-.48,14.83-5.8c10.32-10.48,8.38-24.18-4.51-32.08-6.61-4.03-13.54-4.03-19.99-.16ZM471.66,225.74c-41.06,9.53-71.11,36.46-84.09,75.71-3.78,11.33-4.43,15.77-4.43,33.67s.66,22.34,4.43,33.67c5.91,17.9,14.78,32.19,27.59,45,13.14,12.97,27.26,21.68,45,27.59,11.33,3.78,15.77,4.43,33.67,4.43s22.34-.66,33.67-4.43c17.74-5.91,32.02-14.62,45-27.59,12.97-12.97,21.68-27.26,27.59-45,3.78-11.33,4.43-15.77,4.43-33.67s-.66-22.34-4.43-33.67c-15.11-45.66-54.52-75.38-102.15-77.35-10.51-.33-20.04.16-26.28,1.64ZM514.36,235.76c48.61,10.18,84.25,56.49,80.64,105.11-.82,12.32-4.43,26.93-9.36,37.44l-2.13,4.6-2.96-9.69c-3.61-11.82-13.14-23.16-23.65-28.25-9.85-4.76-28.9-4.11-39.74,1.48-28.74,14.78-44.01,52.39-33.17,80.96,1.81,4.6,2.96,8.7,2.63,9.03s-5.91-.49-12.48-1.81c-15.77-3.28-32.85-11.33-32.85-15.27,0-7.72-3.61-58.14-5.75-79.82-2.63-26.77-5.09-34.32-12.65-38.27-4.43-2.3-4.93-2.3-9.53,2.46-3.94,3.94-4.93,6.24-4.93,12.15,0,8.38,4.93,31.2,15.27,70.45,3.94,15.27,6.57,27.59,6.08,27.59-.66,0-4.27-3.45-8.21-7.55-5.91-6.57-6.73-8.21-5.91-12.81,1.31-6.9-1.81-22.99-5.75-31.04-1.81-3.45-6.57-9.53-10.67-13.3-6.57-6.4-7.23-7.72-7.23-15.11,0-13.3,4.43-30.22,11.66-44.83,19.87-40.4,66.35-62.9,110.69-53.54ZM548.85,348.42c13.96,3.61,25.13,17.74,28.08,35.64.82,5.26.33,7.88-2.63,12.48-9.53,15.6-37.44,33.17-59.94,37.94-16.59,3.45-18.39,3.28-22.17-2.79-15.77-25.95,1.31-69.96,31.7-81.62,9.85-3.78,14.94-4.11,24.96-1.64ZM516.99,249.22c-15.6,7.88-15.27,31.37.49,38.92,6.9,3.28,11,3.28,18.07.33,11.33-4.76,16.59-17.9,11.33-28.41-5.75-11.66-18.89-16.42-29.89-10.84ZM480.69,277.64c-4.11,4.11-4.11,5.58.66,15.6,11.33,24.31,37.28,39.41,70.78,41.06q14.78.82,6.57-1.31c-12.65-3.45-31.53-13.63-40.56-22.17-5.26-4.93-10.51-12.32-14.62-20.36-3.45-6.9-7.88-13.47-9.53-14.45-4.93-2.63-9.69-1.97-13.3,1.64ZM438,305.39c-5.09,9.53.49,16.26,20.2,23.98,6.08,2.46,11,5.09,11,5.91s-5.09,11.82-11.5,24.47c-16.92,33.67-15.93,34.32,10.35,5.91,25.95-28.25,27.92-36.62,11.66-49.93-14.78-12.32-37.61-17.9-41.71-10.35ZM195.01,223.29c-32.93,7.09-62.14,30.06-76.83,60.62-22.8,47.11-11.14,100.98,29.55,135.59,17.05,14.69,47.45,25.67,70.92,25.67,41.88,0,82.24-25.5,100.47-63.32,22.8-47.11,11.14-100.98-29.55-135.59-24.15-20.77-61.8-29.89-94.56-22.97ZM242.8,233.25c20.6,4.9,41.37,18.07,55.56,35.46,30.06,36.64,30.06,91.69,0,128.33-14.18,17.39-34.95,30.56-55.56,35.46-19.08,4.39-47.79,2.36-62.82-4.39-4.56-2.2-4.39-2.2,6.59-5.91,14.35-4.9,22.97-10.81,27.52-19.08,3.04-5.4,3.38-7.43,2.03-11.31-4.56-11.82-32.25-37.82-48.63-45.59-16.55-7.77-25.67-5.23-25.67,7.6,0,4.39,1.35,7.43,5.4,11.48l5.23,5.57-8.27,9.12c-4.56,4.9-9.12,9.12-10.13,9.29-2.7.17-12.16-20.09-15.03-32.42-3.21-13.51-3.21-34.62,0-48.13,8.44-35.8,39.18-66.7,74.81-75.31,12.83-3.21,35.8-3.21,48.97-.17ZM185.39,391.13c2.87,1.86,5.4,4.39,5.4,5.57,0,3.38-6.08,8.27-18.74,15.2l-11.14,6.08-5.4-4.56-5.23-4.56,13.85-10.47c7.77-5.74,14.35-10.47,14.86-10.47.51-.17,3.38,1.35,6.42,3.21ZM154.49,263.31c-6.75,3.21-13.85,10.64-18.24,18.91-3.88,7.6-6.08,34.11-3.38,41.2,1.52,3.55,1.86,2.87,4.56-6.75,7.09-25.33,18.57-38.16,29.89-33.77,2.2.84,9.29,5.74,15.54,10.98,13.34,10.98,20.94,12.5,24.65,5.4,9.29-17.22-32.25-45.42-53.02-35.97ZM234.7,271.75c-4.9,2.53-11.82,12.16-11.82,16.72,0,6.25,4.9,14.86,10.47,18.24,11.82,7.26,27.02,1.86,31.58-10.98,2.03-5.91,1.86-7.6-.34-13-4.73-11.14-19.08-16.38-29.89-10.98ZM311.86,312.45c-3.71,9.12-14.18,21.28-23.98,28.03-12.83,8.95-20.09,6.08-26.17-10.13-3.71-9.79-9.79-16.89-14.52-16.89-3.88,0-9.12,8.61-9.12,15.03,0,14.02,15.7,34.28,28.2,36.64,20.09,3.71,50.66-28.88,49.14-52.52l-.51-7.6-3.04,7.43Z"/>
    </g>
  </g>
  <g id="f" data-name="Layer 4">
    <g class="n">
      <g>
        <path class="p" d="M51.5,493.98v-12.27h49.28v12.27h-17.56v58.25h-14.35v-58.25h-17.37Z"/>
        <path class="p" d="M111.07,481.7h14.35v70.52h-14.35v-70.52Z"/>
        <path class="p" d="M141.84,552.23v-70.52h14.82l22.28,45.41v-45.41h13.31v70.52h-13.03l-24.07-48.34v48.34h-13.31Z"/>
        <path class="p" d="M222,527.49l-21.71-45.79h14.82l13.97,30.87,14.73-30.87h14.07l-21.52,45.69v24.83h-14.35v-24.73Z"/>
        <path class="p" d="M262.22,529.95h12.18c-.19,1.51-.28,2.74-.28,3.87,0,5.76,4.06,7.93,8.87,7.93,7.08,0,9.06-4.06,9.06-8.5,0-5.48-5.29-8.59-11.23-11.14-3.96-1.7-18.6-6.04-18.6-21.62,0-12.75,6.99-20.49,23.04-20.49,13.12,0,18.69,5.76,18.69,18.5,0,2.55-.38,5.38-.38,5.38h-12.46s.38-2.45.38-4.53c0-2.83-.75-7.27-7.55-7.27-5.57,0-7.46,2.83-7.46,6.51,0,5.29,3.12,7.84,11.05,11.05,8.69,3.49,18.79,7.84,18.79,23.04,0,12.65-6.61,21.15-23.22,21.15-13.88,0-21.15-6.14-21.15-19.07,0-2.08.28-4.82.28-4.82Z"/>
        <path class="p" d="M336.8,529.95h12.18c-.19,1.51-.28,2.74-.28,3.87,0,5.76,4.06,7.93,8.87,7.93,7.08,0,9.06-4.06,9.06-8.5,0-5.48-5.29-8.59-11.23-11.14-3.96-1.7-18.6-6.04-18.6-21.62,0-12.75,6.99-20.49,23.04-20.49,13.12,0,18.69,5.76,18.69,18.5,0,2.55-.38,5.38-.38,5.38h-12.46s.38-2.45.38-4.53c0-2.83-.75-7.27-7.55-7.27-5.57,0-7.46,2.83-7.46,6.51,0,5.29,3.12,7.84,11.05,11.05,8.69,3.49,18.79,7.84,18.79,23.04,0,12.65-6.61,21.15-23.22,21.15-13.88,0-21.15-6.14-21.15-19.07,0-2.08.28-4.82.28-4.82Z"/>
        <path class="p" d="M392.4,552.23v-70.52h19.73c19.73,0,27.94,8.87,27.94,22.47s-7.36,22.94-28.89,22.94h-4.44v25.11h-14.35ZM413.83,514.84c6.99,0,10.76-4.34,10.76-10.48s-3.87-10.38-11.89-10.38h-5.95v20.86h7.08Z"/>
        <path class="p" d="M448.39,516.45c0-20.86,5.48-36.44,25.87-36.44,22.75,0,26.34,17.94,26.34,37.01s-4.06,36.91-26.34,36.91-25.87-19.83-25.87-37.48ZM463.87,514.65c0,18.31,3.4,26.53,10.57,26.53,6.33,0,10.67-5.95,10.67-21.81,0-18.79-2.74-26.62-10.57-26.62-6.33,0-10.67,6.04-10.67,21.9Z"/>
        <path class="p" d="M513.34,552.23v-70.52h22.47c15.48,0,23.79,6.42,23.79,20.11,0,11.8-8.21,16.99-12.27,19.17l14.54,31.25h-15.58l-12.65-28.7h-5.95v28.7h-14.35ZM529.86,512.67c5.76,0,14.25-.94,14.25-10.67,0-6.89-3.68-9.91-12.27-9.91h-4.15v20.58h2.17Z"/>
        <path class="p" d="M566.68,493.98v-12.27h49.28v12.27h-17.56v58.25h-14.35v-58.25h-17.37Z"/>
        <path class="p" d="M621.53,529.95h12.18c-.19,1.51-.28,2.74-.28,3.87,0,5.76,4.06,7.93,8.87,7.93,7.08,0,9.06-4.06,9.06-8.5,0-5.48-5.29-8.59-11.23-11.14-3.96-1.7-18.6-6.04-18.6-21.62,0-12.75,6.99-20.49,23.04-20.49,13.12,0,18.69,5.76,18.69,18.5,0,2.55-.38,5.38-.38,5.38h-12.46s.38-2.45.38-4.53c0-2.83-.75-7.27-7.55-7.27-5.57,0-7.46,2.83-7.46,6.51,0,5.29,3.12,7.84,11.05,11.05,8.69,3.49,18.79,7.84,18.79,23.04,0,12.65-6.61,21.15-23.22,21.15-13.88,0-21.15-6.14-21.15-19.07,0-2.08.28-4.82.28-4.82Z"/>
      </g>
    </g>
  </g>
  <g id="i" data-name="Layer 5">
    <g class="k">
      <path class="p" d="M335,46.3c-23.21,5.32-40.94,15.47-57.54,33.2-12.25,12.89-20.31,26.76-25.63,43.52-5.32,17.25-5.32,45.62,0,62.86,5.8,18.38,13.86,31.43,28.37,46.1,22.73,22.73,44.97,32.08,76.72,32.08s54-9.35,76.72-32.08c14.51-14.67,22.57-27.72,28.37-46.1,5.32-17.25,5.32-45.62,0-62.86-5.8-18.38-13.86-31.43-28.37-46.1-21.44-21.44-43.04-30.95-72.69-32.24-10.32-.32-19.66.16-25.95,1.61ZM377.07,56.13c6.29,1.29,17.41,5.32,24.82,9.03,38.52,19.02,61.25,64.47,53.35,106.22-.97,4.84-1.93,8.87-2.26,9.19-.32.48-7.74-3.06-16.44-7.58-14.99-7.9-16.44-8.38-25.63-7.74-7.41.48-13.54,2.42-26.6,8.54-23.05,10.96-29.5,10.96-53.51.32-23.05-10.15-28.69-10.15-49.65-.32-8.38,4.03-16.44,7.25-17.89,7.25-3.38,0-4.51-4.19-5.64-20.95-4.35-64.96,55.77-117.34,119.44-103.96ZM435.26,179.12c8.38,4.19,15.15,8.54,15.15,9.67,0,1.29-2.74,7.41-5.96,13.86-8.87,16.76-25.14,32.56-42.55,41.1-30.46,14.99-59.48,14.99-89.94,0-17.41-8.54-33.69-24.34-42.55-41.1-7.09-13.86-7.41-16.76-1.77-16.76,2.26,0,9.67-2.9,16.44-6.45,18.86-9.83,20.79-9.83,43.84,0,10.96,4.84,23.05,8.87,27.4,9.35,7.74.64,12.09-.81,45.13-15.15,11.12-4.84,15.31-4.19,34.82,5.48ZM333.06,101.43c-18.54,5.48-33.37,12.41-36.59,17.25-2.42,3.87-2.42,4.84-.16,12.73,3.71,12.57,23.86,35.14,31.27,35.14,4.35,0,8.38-4.19,8.38-8.54,0-4.67-3.38-9.51-14.18-20.79-4.84-5-8.38-9.67-7.74-10.64.48-.81,9.67-7.25,20.31-14.18s19.34-13.22,19.34-13.86c0-2.26-6.77-1.29-20.63,2.9ZM351.12,137.37c-7.58,4.67-10.32,9.51-10.32,18.21,0,6.61.81,8.7,5.48,13.86,5.16,5.48,6.29,5.96,14.51,5.96s9.51-.48,14.83-5.8c10.32-10.48,8.38-24.18-4.51-32.08-6.61-4.03-13.54-4.03-19.99-.16ZM471.85,225.63c-41.06,9.53-71.11,36.46-84.09,75.71-3.78,11.33-4.43,15.77-4.43,33.67s.66,22.34,4.43,33.67c5.91,17.9,14.78,32.19,27.59,45,13.14,12.97,27.26,21.68,45,27.59,11.33,3.78,15.77,4.43,33.67,4.43s22.34-.66,33.67-4.43c17.74-5.91,32.02-14.62,45-27.59,12.97-12.97,21.68-27.26,27.59-45,3.78-11.33,4.43-15.77,4.43-33.67s-.66-22.34-4.43-33.67c-15.11-45.66-54.52-75.38-102.15-77.35-10.51-.33-20.04.16-26.28,1.64ZM514.55,235.65c48.61,10.18,84.25,56.49,80.64,105.11-.82,12.32-4.43,26.93-9.36,37.44l-2.13,4.6-2.96-9.69c-3.61-11.82-13.14-23.16-23.65-28.25-9.85-4.76-28.9-4.11-39.74,1.48-28.74,14.78-44.01,52.39-33.17,80.96,1.81,4.6,2.96,8.7,2.63,9.03s-5.91-.49-12.48-1.81c-15.77-3.28-32.85-11.33-32.85-15.27,0-7.72-3.61-58.14-5.75-79.82-2.63-26.77-5.09-34.32-12.65-38.27-4.43-2.3-4.93-2.3-9.53,2.46-3.94,3.94-4.93,6.24-4.93,12.15,0,8.38,4.93,31.2,15.27,70.45,3.94,15.27,6.57,27.59,6.08,27.59-.66,0-4.27-3.45-8.21-7.55-5.91-6.57-6.73-8.21-5.91-12.81,1.31-6.9-1.81-22.99-5.75-31.04-1.81-3.45-6.57-9.53-10.67-13.3-6.57-6.4-7.23-7.72-7.23-15.11,0-13.3,4.43-30.22,11.66-44.83,19.87-40.4,66.35-62.9,110.69-53.54ZM549.04,348.31c13.96,3.61,25.13,17.74,28.08,35.64.82,5.26.33,7.88-2.63,12.48-9.53,15.6-37.44,33.17-59.94,37.94-16.59,3.45-18.39,3.28-22.17-2.79-15.77-25.95,1.31-69.96,31.7-81.62,9.85-3.78,14.94-4.11,24.96-1.64ZM517.18,249.11c-15.6,7.88-15.27,31.37.49,38.92,6.9,3.28,11,3.28,18.07.33,11.33-4.76,16.59-17.9,11.33-28.41-5.75-11.66-18.89-16.42-29.89-10.84ZM480.88,277.52c-4.11,4.11-4.11,5.58.66,15.6,11.33,24.31,37.28,39.41,70.78,41.06q14.78.82,6.57-1.31c-12.65-3.45-31.53-13.63-40.56-22.17-5.26-4.93-10.51-12.32-14.62-20.36-3.45-6.9-7.88-13.47-9.53-14.45-4.93-2.63-9.69-1.97-13.3,1.64ZM438.18,305.28c-5.09,9.53.49,16.26,20.2,23.98,6.08,2.46,11,5.09,11,5.91s-5.09,11.82-11.5,24.47c-16.92,33.67-15.93,34.32,10.35,5.91,25.95-28.25,27.92-36.62,11.66-49.93-14.78-12.32-37.61-17.9-41.71-10.35ZM195.2,223.18c-32.93,7.09-62.14,30.06-76.83,60.62-22.8,47.11-11.14,100.98,29.55,135.59,17.05,14.69,47.45,25.67,70.92,25.67,41.88,0,82.24-25.5,100.47-63.32,22.8-47.11,11.14-100.98-29.55-135.59-24.15-20.77-61.8-29.89-94.56-22.97ZM242.99,233.14c20.6,4.9,41.37,18.07,55.56,35.46,30.06,36.64,30.06,91.69,0,128.33-14.18,17.39-34.95,30.56-55.56,35.46-19.08,4.39-47.79,2.36-62.82-4.39-4.56-2.2-4.39-2.2,6.59-5.91,14.35-4.9,22.97-10.81,27.52-19.08,3.04-5.4,3.38-7.43,2.03-11.31-4.56-11.82-32.25-37.82-48.63-45.59-16.55-7.77-25.67-5.23-25.67,7.6,0,4.39,1.35,7.43,5.4,11.48l5.23,5.57-8.27,9.12c-4.56,4.9-9.12,9.12-10.13,9.29-2.7.17-12.16-20.09-15.03-32.42-3.21-13.51-3.21-34.62,0-48.13,8.44-35.8,39.18-66.7,74.81-75.31,12.83-3.21,35.8-3.21,48.97-.17ZM185.57,391.02c2.87,1.86,5.4,4.39,5.4,5.57,0,3.38-6.08,8.27-18.74,15.2l-11.14,6.08-5.4-4.56-5.23-4.56,13.85-10.47c7.77-5.74,14.35-10.47,14.86-10.47.51-.17,3.38,1.35,6.42,3.21ZM154.67,263.2c-6.75,3.21-13.85,10.64-18.24,18.91-3.88,7.6-6.08,34.11-3.38,41.2,1.52,3.55,1.86,2.87,4.56-6.75,7.09-25.33,18.57-38.16,29.89-33.77,2.2.84,9.29,5.74,15.54,10.98,13.34,10.98,20.94,12.5,24.65,5.4,9.29-17.22-32.25-45.42-53.02-35.97ZM234.88,271.64c-4.9,2.53-11.82,12.16-11.82,16.72,0,6.25,4.9,14.86,10.47,18.24,11.82,7.26,27.02,1.86,31.58-10.98,2.03-5.91,1.86-7.6-.34-13-4.73-11.14-19.08-16.38-29.89-10.98ZM312.05,312.33c-3.71,9.12-14.18,21.28-23.98,28.03-12.83,8.95-20.09,6.08-26.17-10.13-3.71-9.79-9.79-16.89-14.52-16.89-3.88,0-9.12,8.61-9.12,15.03,0,14.02,15.7,34.28,28.2,36.64,20.09,3.71,50.66-28.88,49.14-52.52l-.51-7.6-3.04,7.43Z"/>
    </g>
  </g>
</svg>